<?xml version="1.0" encoding="UTF-8" standalone="no"?>
<!DOCTYPE svg PUBLIC "-//W3C//DTD SVG 1.1//EN" "http://www.w3.org/Graphics/SVG/1.1/DTD/svg11.dtd">
<svg width="100%" height="100%" viewBox="0 0 144 144" version="1.1" xmlns="http://www.w3.org/2000/svg" xmlns:xlink="http://www.w3.org/1999/xlink" xml:space="preserve" xmlns:serif="http://www.serif.com/" style="fill-rule:evenodd;clip-rule:evenodd;stroke-linecap:round;stroke-linejoin:round;stroke-miterlimit:1.5;">
    <g transform="matrix(1,0,0,1,-7032,-724.23)">
        <g id="Artboard8" transform="matrix(0.336001,0,0,0.336001,4669.24,698.203)">
            <rect x="7032.01" y="77.462" width="428.57" height="428.57" style="fill:none;"/>
            <clipPath id="_clip1">
                <rect x="7032.01" y="77.462" width="428.57" height="428.57"/>
            </clipPath>
            <g clip-path="url(#_clip1)">
                <g transform="matrix(2.14285,0,0,2.14285,6927.01,-1731.1)">
                    <g transform="matrix(1,0,0,1,236,762)">
                        <g transform="matrix(2.24719,0,0,2.17391,-2222.96,-600.609)">
                            <path d="M995,330.56C995,321.42 987.822,314 978.98,314L922.02,314C913.178,314 906,321.42 906,330.56L906,389.44C906,398.58 913.178,406 922.02,406L978.98,406C987.822,406 995,398.58 995,389.44L995,330.56Z"/>
                        </g>
                        <g transform="matrix(2.08556,0,0,2.08556,-479.608,-290.9)">
                            <path d="M157.174,180L218.826,180" style="fill:none;stroke:rgb(46,48,124);stroke-width:1.5px;"/>
                        </g>
                        <g transform="matrix(2.08556,0,0,2.08556,-479.086,-95.9003)">
                            <path d="M157.174,180L218.826,180" style="fill:none;stroke:rgb(46,48,124);stroke-width:1.5px;"/>
                        </g>
                        <g transform="matrix(2.15586,0,0,2.08556,-2136.15,-568.802)">
                            <path d="M920.679,314C912.578,314 906,320.799 906,329.174L906,390.826C906,399.201 912.578,406 920.679,406" style="fill:none;stroke:rgb(105,109,255);stroke-width:2.95px;"/>
                        </g>
                        <g transform="matrix(2.15586,0,0,2.08556,-2136.15,-568.802)">
                            <path d="M980.321,406C988.422,406 995,399.201 995,390.826L995,329.174C995,320.799 988.422,314 980.321,314" style="fill:none;stroke:rgb(105,109,255);stroke-width:2.95px;"/>
                        </g>
                    </g>
                    <g transform="matrix(1.223,0,0,1.223,-33.2276,-189.459)">
                        <g transform="matrix(3.67768,0,0,3.42958,-375.998,478.964)">
                            <g transform="matrix(0.988492,0,0.0174551,1,-0.868026,0)">
                                <g transform="matrix(24,0,0,24,157.241,135.596)">
                                </g>
                                <text x="130.241px" y="135.596px" style="font-family:'Pixeltype';font-size:24px;fill:rgb(13,189,46);">SAS</text>
                            </g>
                        </g>
                        <g transform="matrix(1,0,0,1,-243,626.989)">
                            <g transform="matrix(0.4,0,0,0.4,-77.8,103.6)">
                                <rect x="1262" y="376" width="5" height="5" style="fill:rgb(13,189,46);"/>
                            </g>
                            <g transform="matrix(0.4,0,0,0.4,-77.8,119.6)">
                                <rect x="1262" y="376" width="5" height="5" style="fill:rgb(13,189,46);"/>
                            </g>
                            <g transform="matrix(0.4,0,0,0.4,-73.8,111.6)">
                                <rect x="1262" y="376" width="5" height="5" style="fill:rgb(13,189,46);"/>
                            </g>
                            <g transform="matrix(0.4,0,0,0.4,-133.8,103.6)">
                                <rect x="1262" y="376" width="5" height="5" style="fill:rgb(13,189,46);"/>
                            </g>
                            <g transform="matrix(0.4,0,0,0.4,-129.8,111.6)">
                                <rect x="1262" y="376" width="5" height="5" style="fill:rgb(13,189,46);"/>
                            </g>
                            <g transform="matrix(0.4,0,0,0.4,-129.8,95.6)">
                                <rect x="1262" y="376" width="5" height="5" style="fill:rgb(13,189,46);"/>
                            </g>
                            <g transform="matrix(0.4,0,0,0.4,-165.8,119.6)">
                                <rect x="1262" y="376" width="5" height="5" style="fill:rgb(13,189,46);"/>
                            </g>
                            <g transform="matrix(0.4,0,0,0.4,-161.8,111.6)">
                                <rect x="1262" y="376" width="5" height="5" style="fill:rgb(13,189,46);"/>
                            </g>
                            <g transform="matrix(0.4,0,0,0.4,-101.8,103.6)">
                                <rect x="1262" y="376" width="5" height="5" style="fill:rgb(13,189,46);"/>
                            </g>
                            <g transform="matrix(0.4,0,0,0.4,-101.8,87.6)">
                                <rect x="1262" y="376" width="5" height="5" style="fill:rgb(13,189,46);"/>
                            </g>
                            <g transform="matrix(0.4,0,0,0.4,-97.8,111.6)">
                                <rect x="1262" y="376" width="5" height="5" style="fill:rgb(13,189,46);"/>
                            </g>
                            <g transform="matrix(0.4,0,0,0.4,-97.8,95.6)">
                                <rect x="1262" y="376" width="5" height="5" style="fill:rgb(13,189,46);"/>
                            </g>
                            <g transform="matrix(0.4,0,0,0.4,-61.8,119.6)">
                                <rect x="1262" y="376" width="5" height="5" style="fill:rgb(13,189,46);"/>
                            </g>
                            <g transform="matrix(0.4,0,0,0.4,-117.8,103.6)">
                                <rect x="1262" y="376" width="5" height="5" style="fill:rgb(13,189,46);"/>
                            </g>
                            <g transform="matrix(0.4,0,0,0.4,-117.8,87.6)">
                                <rect x="1262" y="376" width="5" height="5" style="fill:rgb(13,189,46);"/>
                            </g>
                            <g transform="matrix(0.4,0,0,0.4,-113.8,95.6)">
                                <rect x="1262" y="376" width="5" height="5" style="fill:rgb(13,189,46);"/>
                            </g>
                            <g transform="matrix(0.4,0,0,0.4,-149.8,103.6)">
                                <rect x="1262" y="376" width="5" height="5" style="fill:rgb(13,189,46);"/>
                            </g>
                            <g transform="matrix(0.4,0,0,0.4,-149.8,119.6)">
                                <rect x="1262" y="376" width="5" height="5" style="fill:rgb(13,189,46);"/>
                            </g>
                            <g transform="matrix(0.4,0,0,0.4,-145.8,111.6)">
                                <rect x="1262" y="376" width="5" height="5" style="fill:rgb(13,189,46);"/>
                            </g>
                            <g transform="matrix(0.4,0,0,0.4,-145.8,95.6)">
                                <rect x="1262" y="376" width="5" height="5" style="fill:rgb(13,189,46);"/>
                            </g>
                            <g transform="matrix(0.4,0,0,0.4,-85.8,103.6)">
                                <rect x="1262" y="376" width="5" height="5" style="fill:rgb(13,189,46);"/>
                            </g>
                            <g transform="matrix(0.4,0,0,0.4,-81.8,111.6)">
                                <rect x="1262" y="376" width="5" height="5" style="fill:rgb(13,189,46);"/>
                            </g>
                            <g transform="matrix(0.4,0,0,0.4,-81.8,95.6)">
                                <rect x="1262" y="376" width="5" height="5" style="fill:rgb(13,189,46);"/>
                            </g>
                            <g transform="matrix(0.4,0,0,0.4,-69.8,103.6)">
                                <rect x="1262" y="376" width="5" height="5" style="fill:rgb(13,189,46);"/>
                            </g>
                            <g transform="matrix(0.4,0,0,0.4,-69.8,119.6)">
                                <rect x="1262" y="376" width="5" height="5" style="fill:rgb(13,189,46);"/>
                            </g>
                            <g transform="matrix(0.4,0,0,0.4,-65.8,111.6)">
                                <rect x="1262" y="376" width="5" height="5" style="fill:rgb(13,189,46);"/>
                            </g>
                            <g transform="matrix(0.4,0,0,0.4,-125.8,103.6)">
                                <rect x="1262" y="376" width="5" height="5" style="fill:rgb(13,189,46);"/>
                            </g>
                            <g transform="matrix(0.4,0,0,0.4,-125.8,87.6)">
                                <rect x="1262" y="376" width="5" height="5" style="fill:rgb(13,189,46);"/>
                            </g>
                            <g transform="matrix(0.4,0,0,0.4,-121.8,95.6)">
                                <rect x="1262" y="376" width="5" height="5" style="fill:rgb(13,189,46);"/>
                            </g>
                            <g transform="matrix(0.4,0,0,0.4,-157.8,103.6)">
                                <rect x="1262" y="376" width="5" height="5" style="fill:rgb(13,189,46);"/>
                            </g>
                            <g transform="matrix(0.4,0,0,0.4,-157.8,119.6)">
                                <rect x="1262" y="376" width="5" height="5" style="fill:rgb(13,189,46);"/>
                            </g>
                            <g transform="matrix(0.4,0,0,0.4,-153.8,111.6)">
                                <rect x="1262" y="376" width="5" height="5" style="fill:rgb(13,189,46);"/>
                            </g>
                            <g transform="matrix(0.4,0,0,0.4,-93.8,103.6)">
                                <rect x="1262" y="376" width="5" height="5" style="fill:rgb(13,189,46);"/>
                            </g>
                            <g transform="matrix(0.4,0,0,0.4,-89.8,111.6)">
                                <rect x="1262" y="376" width="5" height="5" style="fill:rgb(13,189,46);"/>
                            </g>
                            <g transform="matrix(0.4,0,0,0.4,-89.8,95.6)">
                                <rect x="1262" y="376" width="5" height="5" style="fill:rgb(13,189,46);"/>
                            </g>
                            <g transform="matrix(0.4,0,0,0.4,-109.8,103.6)">
                                <rect x="1262" y="376" width="5" height="5" style="fill:rgb(13,189,46);"/>
                            </g>
                            <g transform="matrix(0.4,0,0,0.4,-109.8,87.6)">
                                <rect x="1262" y="376" width="5" height="5" style="fill:rgb(13,189,46);"/>
                            </g>
                            <g transform="matrix(0.4,0,0,0.4,-105.8,95.6)">
                                <rect x="1262" y="376" width="5" height="5" style="fill:rgb(13,189,46);"/>
                            </g>
                            <g transform="matrix(0.4,0,0,0.4,-141.8,103.6)">
                                <rect x="1262" y="376" width="5" height="5" style="fill:rgb(13,189,46);"/>
                            </g>
                            <g transform="matrix(0.4,0,0,0.4,-137.8,111.6)">
                                <rect x="1262" y="376" width="5" height="5" style="fill:rgb(13,189,46);"/>
                            </g>
                            <g transform="matrix(0.4,0,0,0.4,-137.8,95.6)">
                                <rect x="1262" y="376" width="5" height="5" style="fill:rgb(13,189,46);"/>
                            </g>
                        </g>
                        <g transform="matrix(1,0,0,-1,-243,1225.99)">
                            <g transform="matrix(0.4,0,0,0.4,-77.8,103.6)">
                                <rect x="1262" y="376" width="5" height="5" style="fill:rgb(13,189,46);"/>
                            </g>
                            <g transform="matrix(0.4,0,0,0.4,-77.8,119.6)">
                                <rect x="1262" y="376" width="5" height="5" style="fill:rgb(13,189,46);"/>
                            </g>
                            <g transform="matrix(0.4,0,0,0.4,-73.8,111.6)">
                                <rect x="1262" y="376" width="5" height="5" style="fill:rgb(13,189,46);"/>
                            </g>
                            <g transform="matrix(0.4,0,0,0.4,-133.8,103.6)">
                                <rect x="1262" y="376" width="5" height="5" style="fill:rgb(13,189,46);"/>
                            </g>
                            <g transform="matrix(0.4,0,0,0.4,-129.8,111.6)">
                                <rect x="1262" y="376" width="5" height="5" style="fill:rgb(13,189,46);"/>
                            </g>
                            <g transform="matrix(0.4,0,0,0.4,-129.8,95.6)">
                                <rect x="1262" y="376" width="5" height="5" style="fill:rgb(13,189,46);"/>
                            </g>
                            <g transform="matrix(0.4,0,0,0.4,-165.8,119.6)">
                                <rect x="1262" y="376" width="5" height="5" style="fill:rgb(13,189,46);"/>
                            </g>
                            <g transform="matrix(0.4,0,0,0.4,-161.8,111.6)">
                                <rect x="1262" y="376" width="5" height="5" style="fill:rgb(13,189,46);"/>
                            </g>
                            <g transform="matrix(0.4,0,0,0.4,-101.8,103.6)">
                                <rect x="1262" y="376" width="5" height="5" style="fill:rgb(13,189,46);"/>
                            </g>
                            <g transform="matrix(0.4,0,0,0.4,-101.8,87.6)">
                                <rect x="1262" y="376" width="5" height="5" style="fill:rgb(13,189,46);"/>
                            </g>
                            <g transform="matrix(0.4,0,0,0.4,-97.8,111.6)">
                                <rect x="1262" y="376" width="5" height="5" style="fill:rgb(13,189,46);"/>
                            </g>
                            <g transform="matrix(0.4,0,0,0.4,-97.8,95.6)">
                                <rect x="1262" y="376" width="5" height="5" style="fill:rgb(13,189,46);"/>
                            </g>
                            <g transform="matrix(0.4,0,0,0.4,-61.8,119.6)">
                                <rect x="1262" y="376" width="5" height="5" style="fill:rgb(13,189,46);"/>
                            </g>
                            <g transform="matrix(0.4,0,0,0.4,-117.8,103.6)">
                                <rect x="1262" y="376" width="5" height="5" style="fill:rgb(13,189,46);"/>
                            </g>
                            <g transform="matrix(0.4,0,0,0.4,-117.8,87.6)">
                                <rect x="1262" y="376" width="5" height="5" style="fill:rgb(13,189,46);"/>
                            </g>
                            <g transform="matrix(0.4,0,0,0.4,-113.8,95.6)">
                                <rect x="1262" y="376" width="5" height="5" style="fill:rgb(13,189,46);"/>
                            </g>
                            <g transform="matrix(0.4,0,0,0.4,-149.8,103.6)">
                                <rect x="1262" y="376" width="5" height="5" style="fill:rgb(13,189,46);"/>
                            </g>
                            <g transform="matrix(0.4,0,0,0.4,-149.8,119.6)">
                                <rect x="1262" y="376" width="5" height="5" style="fill:rgb(13,189,46);"/>
                            </g>
                            <g transform="matrix(0.4,0,0,0.4,-145.8,111.6)">
                                <rect x="1262" y="376" width="5" height="5" style="fill:rgb(13,189,46);"/>
                            </g>
                            <g transform="matrix(0.4,0,0,0.4,-145.8,95.6)">
                                <rect x="1262" y="376" width="5" height="5" style="fill:rgb(13,189,46);"/>
                            </g>
                            <g transform="matrix(0.4,0,0,0.4,-85.8,103.6)">
                                <rect x="1262" y="376" width="5" height="5" style="fill:rgb(13,189,46);"/>
                            </g>
                            <g transform="matrix(0.4,0,0,0.4,-81.8,111.6)">
                                <rect x="1262" y="376" width="5" height="5" style="fill:rgb(13,189,46);"/>
                            </g>
                            <g transform="matrix(0.4,0,0,0.4,-81.8,95.6)">
                                <rect x="1262" y="376" width="5" height="5" style="fill:rgb(13,189,46);"/>
                            </g>
                            <g transform="matrix(0.4,0,0,0.4,-69.8,103.6)">
                                <rect x="1262" y="376" width="5" height="5" style="fill:rgb(13,189,46);"/>
                            </g>
                            <g transform="matrix(0.4,0,0,0.4,-69.8,119.6)">
                                <rect x="1262" y="376" width="5" height="5" style="fill:rgb(13,189,46);"/>
                            </g>
                            <g transform="matrix(0.4,0,0,0.4,-65.8,111.6)">
                                <rect x="1262" y="376" width="5" height="5" style="fill:rgb(13,189,46);"/>
                            </g>
                            <g transform="matrix(0.4,0,0,0.4,-125.8,103.6)">
                                <rect x="1262" y="376" width="5" height="5" style="fill:rgb(13,189,46);"/>
                            </g>
                            <g transform="matrix(0.4,0,0,0.4,-125.8,87.6)">
                                <rect x="1262" y="376" width="5" height="5" style="fill:rgb(13,189,46);"/>
                            </g>
                            <g transform="matrix(0.4,0,0,0.4,-121.8,95.6)">
                                <rect x="1262" y="376" width="5" height="5" style="fill:rgb(13,189,46);"/>
                            </g>
                            <g transform="matrix(0.4,0,0,0.4,-157.8,103.6)">
                                <rect x="1262" y="376" width="5" height="5" style="fill:rgb(13,189,46);"/>
                            </g>
                            <g transform="matrix(0.4,0,0,0.4,-157.8,119.6)">
                                <rect x="1262" y="376" width="5" height="5" style="fill:rgb(13,189,46);"/>
                            </g>
                            <g transform="matrix(0.4,0,0,0.4,-153.8,111.6)">
                                <rect x="1262" y="376" width="5" height="5" style="fill:rgb(13,189,46);"/>
                            </g>
                            <g transform="matrix(0.4,0,0,0.4,-93.8,103.6)">
                                <rect x="1262" y="376" width="5" height="5" style="fill:rgb(13,189,46);"/>
                            </g>
                            <g transform="matrix(0.4,0,0,0.4,-89.8,111.6)">
                                <rect x="1262" y="376" width="5" height="5" style="fill:rgb(13,189,46);"/>
                            </g>
                            <g transform="matrix(0.4,0,0,0.4,-89.8,95.6)">
                                <rect x="1262" y="376" width="5" height="5" style="fill:rgb(13,189,46);"/>
                            </g>
                            <g transform="matrix(0.4,0,0,0.4,-109.8,103.6)">
                                <rect x="1262" y="376" width="5" height="5" style="fill:rgb(13,189,46);"/>
                            </g>
                            <g transform="matrix(0.4,0,0,0.4,-109.8,87.6)">
                                <rect x="1262" y="376" width="5" height="5" style="fill:rgb(13,189,46);"/>
                            </g>
                            <g transform="matrix(0.4,0,0,0.4,-105.8,95.6)">
                                <rect x="1262" y="376" width="5" height="5" style="fill:rgb(13,189,46);"/>
                            </g>
                            <g transform="matrix(0.4,0,0,0.4,-141.8,103.6)">
                                <rect x="1262" y="376" width="5" height="5" style="fill:rgb(13,189,46);"/>
                            </g>
                            <g transform="matrix(0.4,0,0,0.4,-137.8,111.6)">
                                <rect x="1262" y="376" width="5" height="5" style="fill:rgb(13,189,46);"/>
                            </g>
                            <g transform="matrix(0.4,0,0,0.4,-137.8,95.6)">
                                <rect x="1262" y="376" width="5" height="5" style="fill:rgb(13,189,46);"/>
                            </g>
                        </g>
                        <g transform="matrix(1.06371,0,0,1.06371,-804.918,-274.981)">
                            <circle cx="896.782" cy="1129.78" r="62.782" style="fill:none;stroke:rgb(13,189,46);stroke-width:4px;stroke-linecap:butt;"/>
                        </g>
                    </g>
                </g>
            </g>
        </g>
    </g>
</svg>
