<?xml version="1.0" encoding="UTF-8" standalone="no"?>
<!DOCTYPE svg PUBLIC "-//W3C//DTD SVG 1.1//EN" "http://www.w3.org/Graphics/SVG/1.1/DTD/svg11.dtd">
<svg width="100%" height="100%" viewBox="0 0 144 144" version="1.1" xmlns="http://www.w3.org/2000/svg" xmlns:xlink="http://www.w3.org/1999/xlink" xml:space="preserve" xmlns:serif="http://www.serif.com/" style="fill-rule:evenodd;clip-rule:evenodd;stroke-linejoin:round;stroke-miterlimit:2;">
    <g transform="matrix(1,0,0,1,-7201,-319)">
        <g id="Artboard9" transform="matrix(0.947368,0,0,0.947368,542.395,16.4189)">
            <rect x="7028.53" y="319.391" width="152" height="152" style="fill:none;"/>
            <clipPath id="_clip1">
                <rect x="7028.53" y="319.391" width="152" height="152"/>
            </clipPath>
            <g clip-path="url(#_clip1)">
                <g transform="matrix(0.76,0,0,0.76,6806.61,257.071)">
                    <g transform="matrix(2.24719,0,0,2.17391,-1743.96,-600.609)">
                        <path d="M995,330.56C995,321.42 987.822,314 978.98,314L922.02,314C913.178,314 906,321.42 906,330.56L906,389.44C906,398.58 913.178,406 922.02,406L978.98,406C987.822,406 995,398.58 995,389.44L995,330.56Z" style="fill:rgb(13,189,46);"/>
                        <clipPath id="_clip2">
                            <path d="M995,330.56C995,321.42 987.822,314 978.98,314L922.02,314C913.178,314 906,321.42 906,330.56L906,389.44C906,398.58 913.178,406 922.02,406L978.98,406C987.822,406 995,398.58 995,389.44L995,330.56Z"/>
                        </clipPath>
                        <g clip-path="url(#_clip2)">
                            <g transform="matrix(0.12434,0,0,0.132364,744.855,320.82)">
                                <path d="M1334,305L1296,336L1296,462L1334,431L1334,305Z" style="fill:rgb(4,66,3);"/>
                            </g>
                            <g transform="matrix(0.12434,0,0,0.132364,744.855,344.848)">
                                <path d="M1334,305L1296,336L1296,462L1334,431L1334,305Z" style="fill:rgb(4,66,3);"/>
                            </g>
                            <g transform="matrix(0.12434,0,0,0.132364,744.855,297.224)">
                                <path d="M1334,305L1296,336L1296,462L1334,431L1334,305Z" style="fill:rgb(4,66,3);"/>
                            </g>
                            <g transform="matrix(0.12434,0,0,0.132364,744.855,273.629)">
                                <path d="M1334,305L1296,336L1296,462L1334,431L1334,305Z" style="fill:rgb(4,66,3);"/>
                            </g>
                            <g transform="matrix(0.12434,0,0,0.132364,829.13,320.82)">
                                <path d="M1334,305L1296,336L1296,462L1334,431L1334,305Z" style="fill:rgb(4,66,3);"/>
                            </g>
                            <g transform="matrix(0.12434,0,0,0.132364,829.13,344.848)">
                                <path d="M1334,305L1296,336L1296,462L1334,431L1334,305Z" style="fill:rgb(4,66,3);"/>
                            </g>
                            <g transform="matrix(0.12434,0,0,0.132364,829.13,297.224)">
                                <path d="M1334,305L1296,336L1296,462L1334,431L1334,305Z" style="fill:rgb(4,66,3);"/>
                            </g>
                            <g transform="matrix(0.12434,0,0,0.132364,829.13,273.629)">
                                <path d="M1334,305L1296,336L1296,462L1334,431L1334,305Z" style="fill:rgb(4,66,3);"/>
                            </g>
                        </g>
                    </g>
                    <g transform="matrix(3.33659,0,0,3.1115,-84.3503,-288.053)">
                        <g transform="matrix(0.988492,0,0.0174551,1,-0.919216,0)">
                            <text x="125.793px" y="135.596px" style="font-family:'Pixeltype';font-size:24px;fill:rgb(4,66,3);">NEXT</text>
                        </g>
                        <g transform="matrix(0.988492,0,0.0174551,1,-1.20605,0)">
                            <g transform="matrix(24,0,0,24,166.345,149.096)">
                            </g>
                            <text x="121.345px" y="149.096px" style="font-family:'Pixeltype';font-size:24px;fill:rgb(4,66,3);">STAGE</text>
                        </g>
                    </g>
                    <g transform="matrix(0.589858,0.340554,-0.340554,0.589858,550.783,-643.857)">
                        <path d="M414,1183.65L414,1183.64L465,1183.64L465,1194L419.975,1194L397.463,1232.99L388.487,1227.81L413.987,1183.64L414,1183.65Z" style="fill:rgb(4,66,3);"/>
                    </g>
                    <g transform="matrix(0.4,0,0,0.4,-193.8,111.6)">
                        <rect x="1262" y="376" width="5" height="5" style="fill:rgb(4,66,3);"/>
                    </g>
                    <g transform="matrix(0.4,0,0,0.4,-193.8,95.6)">
                        <rect x="1262" y="376" width="5" height="5" style="fill:rgb(4,66,3);"/>
                    </g>
                    <g transform="matrix(0.4,0,0,0.4,-77.8,103.6)">
                        <rect x="1262" y="376" width="5" height="5" style="fill:rgb(4,66,3);"/>
                    </g>
                    <g transform="matrix(0.4,0,0,0.4,-77.8,87.6)">
                        <rect x="1262" y="376" width="5" height="5" style="fill:rgb(4,66,3);"/>
                    </g>
                    <g transform="matrix(0.4,0,0,0.4,-77.8,119.6)">
                        <rect x="1262" y="376" width="5" height="5" style="fill:rgb(4,66,3);"/>
                    </g>
                    <g transform="matrix(0.4,0,0,0.4,-73.8,111.6)">
                        <rect x="1262" y="376" width="5" height="5" style="fill:rgb(4,66,3);"/>
                    </g>
                    <g transform="matrix(0.4,0,0,0.4,-73.8,95.6)">
                        <rect x="1262" y="376" width="5" height="5" style="fill:rgb(4,66,3);"/>
                    </g>
                    <g transform="matrix(0.4,0,0,0.4,-133.8,103.6)">
                        <rect x="1262" y="376" width="5" height="5" style="fill:rgb(4,66,3);"/>
                    </g>
                    <g transform="matrix(0.4,0,0,0.4,-133.8,87.6)">
                        <rect x="1262" y="376" width="5" height="5" style="fill:rgb(4,66,3);"/>
                    </g>
                    <g transform="matrix(0.4,0,0,0.4,-133.8,119.6)">
                        <rect x="1262" y="376" width="5" height="5" style="fill:rgb(4,66,3);"/>
                    </g>
                    <g transform="matrix(0.4,0,0,0.4,-129.8,111.6)">
                        <rect x="1262" y="376" width="5" height="5" style="fill:rgb(4,66,3);"/>
                    </g>
                    <g transform="matrix(0.4,0,0,0.4,-129.8,95.6)">
                        <rect x="1262" y="376" width="5" height="5" style="fill:rgb(4,66,3);"/>
                    </g>
                    <g transform="matrix(0.4,0,0,0.4,-165.8,103.6)">
                        <rect x="1262" y="376" width="5" height="5" style="fill:rgb(4,66,3);"/>
                    </g>
                    <g transform="matrix(0.4,0,0,0.4,-165.8,87.6)">
                        <rect x="1262" y="376" width="5" height="5" style="fill:rgb(4,66,3);"/>
                    </g>
                    <g transform="matrix(0.4,0,0,0.4,-165.8,119.6)">
                        <rect x="1262" y="376" width="5" height="5" style="fill:rgb(4,66,3);"/>
                    </g>
                    <g transform="matrix(0.4,0,0,0.4,-161.8,111.6)">
                        <rect x="1262" y="376" width="5" height="5" style="fill:rgb(4,66,3);"/>
                    </g>
                    <g transform="matrix(0.4,0,0,0.4,-161.8,95.6)">
                        <rect x="1262" y="376" width="5" height="5" style="fill:rgb(4,66,3);"/>
                    </g>
                    <g transform="matrix(0.4,0,0,0.4,-45.8,103.6)">
                        <rect x="1262" y="376" width="5" height="5" style="fill:rgb(4,66,3);"/>
                    </g>
                    <g transform="matrix(0.4,0,0,0.4,-45.8,87.6)">
                        <rect x="1262" y="376" width="5" height="5" style="fill:rgb(4,66,3);"/>
                    </g>
                    <g transform="matrix(0.4,0,0,0.4,-45.8,119.6)">
                        <rect x="1262" y="376" width="5" height="5" style="fill:rgb(4,66,3);"/>
                    </g>
                    <g transform="matrix(0.4,0,0,0.4,-41.8,111.6)">
                        <rect x="1262" y="376" width="5" height="5" style="fill:rgb(4,66,3);"/>
                    </g>
                    <g transform="matrix(0.4,0,0,0.4,-41.8,95.6)">
                        <rect x="1262" y="376" width="5" height="5" style="fill:rgb(4,66,3);"/>
                    </g>
                    <g transform="matrix(0.4,0,0,0.4,-101.8,103.6)">
                        <rect x="1262" y="376" width="5" height="5" style="fill:rgb(4,66,3);"/>
                    </g>
                    <g transform="matrix(0.4,0,0,0.4,-101.8,87.6)">
                        <rect x="1262" y="376" width="5" height="5" style="fill:rgb(4,66,3);"/>
                    </g>
                    <g transform="matrix(0.4,0,0,0.4,-101.8,119.6)">
                        <rect x="1262" y="376" width="5" height="5" style="fill:rgb(4,66,3);"/>
                    </g>
                    <g transform="matrix(0.4,0,0,0.4,-97.8,111.6)">
                        <rect x="1262" y="376" width="5" height="5" style="fill:rgb(4,66,3);"/>
                    </g>
                    <g transform="matrix(0.4,0,0,0.4,-97.8,95.6)">
                        <rect x="1262" y="376" width="5" height="5" style="fill:rgb(4,66,3);"/>
                    </g>
                    <g transform="matrix(0.4,0,0,0.4,-181.8,103.6)">
                        <rect x="1262" y="376" width="5" height="5" style="fill:rgb(4,66,3);"/>
                    </g>
                    <g transform="matrix(0.4,0,0,0.4,-181.8,87.6)">
                        <rect x="1262" y="376" width="5" height="5" style="fill:rgb(4,66,3);"/>
                    </g>
                    <g transform="matrix(0.4,0,0,0.4,-181.8,119.6)">
                        <rect x="1262" y="376" width="5" height="5" style="fill:rgb(4,66,3);"/>
                    </g>
                    <g transform="matrix(0.4,0,0,0.4,-177.8,111.6)">
                        <rect x="1262" y="376" width="5" height="5" style="fill:rgb(4,66,3);"/>
                    </g>
                    <g transform="matrix(0.4,0,0,0.4,-177.8,95.6)">
                        <rect x="1262" y="376" width="5" height="5" style="fill:rgb(4,66,3);"/>
                    </g>
                    <g transform="matrix(0.4,0,0,0.4,-61.8,103.6)">
                        <rect x="1262" y="376" width="5" height="5" style="fill:rgb(4,66,3);"/>
                    </g>
                    <g transform="matrix(0.4,0,0,0.4,-61.8,87.6)">
                        <rect x="1262" y="376" width="5" height="5" style="fill:rgb(4,66,3);"/>
                    </g>
                    <g transform="matrix(0.4,0,0,0.4,-61.8,119.6)">
                        <rect x="1262" y="376" width="5" height="5" style="fill:rgb(4,66,3);"/>
                    </g>
                    <g transform="matrix(0.4,0,0,0.4,-57.8,111.6)">
                        <rect x="1262" y="376" width="5" height="5" style="fill:rgb(4,66,3);"/>
                    </g>
                    <g transform="matrix(0.4,0,0,0.4,-57.8,95.6)">
                        <rect x="1262" y="376" width="5" height="5" style="fill:rgb(4,66,3);"/>
                    </g>
                    <g transform="matrix(0.4,0,0,0.4,-117.8,103.6)">
                        <rect x="1262" y="376" width="5" height="5" style="fill:rgb(4,66,3);"/>
                    </g>
                    <g transform="matrix(0.4,0,0,0.4,-117.8,87.6)">
                        <rect x="1262" y="376" width="5" height="5" style="fill:rgb(4,66,3);"/>
                    </g>
                    <g transform="matrix(0.4,0,0,0.4,-117.8,119.6)">
                        <rect x="1262" y="376" width="5" height="5" style="fill:rgb(4,66,3);"/>
                    </g>
                    <g transform="matrix(0.4,0,0,0.4,-113.8,111.6)">
                        <rect x="1262" y="376" width="5" height="5" style="fill:rgb(4,66,3);"/>
                    </g>
                    <g transform="matrix(0.4,0,0,0.4,-113.8,95.6)">
                        <rect x="1262" y="376" width="5" height="5" style="fill:rgb(4,66,3);"/>
                    </g>
                    <g transform="matrix(0.4,0,0,0.4,-149.8,103.6)">
                        <rect x="1262" y="376" width="5" height="5" style="fill:rgb(4,66,3);"/>
                    </g>
                    <g transform="matrix(0.4,0,0,0.4,-149.8,87.6)">
                        <rect x="1262" y="376" width="5" height="5" style="fill:rgb(4,66,3);"/>
                    </g>
                    <g transform="matrix(0.4,0,0,0.4,-149.8,119.6)">
                        <rect x="1262" y="376" width="5" height="5" style="fill:rgb(4,66,3);"/>
                    </g>
                    <g transform="matrix(0.4,0,0,0.4,-145.8,111.6)">
                        <rect x="1262" y="376" width="5" height="5" style="fill:rgb(4,66,3);"/>
                    </g>
                    <g transform="matrix(0.4,0,0,0.4,-145.8,95.6)">
                        <rect x="1262" y="376" width="5" height="5" style="fill:rgb(4,66,3);"/>
                    </g>
                    <g transform="matrix(0.4,0,0,0.4,-85.8,103.6)">
                        <rect x="1262" y="376" width="5" height="5" style="fill:rgb(4,66,3);"/>
                    </g>
                    <g transform="matrix(0.4,0,0,0.4,-85.8,87.6)">
                        <rect x="1262" y="376" width="5" height="5" style="fill:rgb(4,66,3);"/>
                    </g>
                    <g transform="matrix(0.4,0,0,0.4,-85.8,119.6)">
                        <rect x="1262" y="376" width="5" height="5" style="fill:rgb(4,66,3);"/>
                    </g>
                    <g transform="matrix(0.4,0,0,0.4,-81.8,111.6)">
                        <rect x="1262" y="376" width="5" height="5" style="fill:rgb(4,66,3);"/>
                    </g>
                    <g transform="matrix(0.4,0,0,0.4,-81.8,95.6)">
                        <rect x="1262" y="376" width="5" height="5" style="fill:rgb(4,66,3);"/>
                    </g>
                    <g transform="matrix(0.4,0,0,0.4,-189.8,103.6)">
                        <rect x="1262" y="376" width="5" height="5" style="fill:rgb(4,66,3);"/>
                    </g>
                    <g transform="matrix(0.4,0,0,0.4,-189.8,87.6)">
                        <rect x="1262" y="376" width="5" height="5" style="fill:rgb(4,66,3);"/>
                    </g>
                    <g transform="matrix(0.4,0,0,0.4,-189.8,119.6)">
                        <rect x="1262" y="376" width="5" height="5" style="fill:rgb(4,66,3);"/>
                    </g>
                    <g transform="matrix(0.4,0,0,0.4,-185.8,111.6)">
                        <rect x="1262" y="376" width="5" height="5" style="fill:rgb(4,66,3);"/>
                    </g>
                    <g transform="matrix(0.4,0,0,0.4,-185.8,95.6)">
                        <rect x="1262" y="376" width="5" height="5" style="fill:rgb(4,66,3);"/>
                    </g>
                    <g transform="matrix(0.4,0,0,0.4,-69.8,103.6)">
                        <rect x="1262" y="376" width="5" height="5" style="fill:rgb(4,66,3);"/>
                    </g>
                    <g transform="matrix(0.4,0,0,0.4,-69.8,87.6)">
                        <rect x="1262" y="376" width="5" height="5" style="fill:rgb(4,66,3);"/>
                    </g>
                    <g transform="matrix(0.4,0,0,0.4,-69.8,119.6)">
                        <rect x="1262" y="376" width="5" height="5" style="fill:rgb(4,66,3);"/>
                    </g>
                    <g transform="matrix(0.4,0,0,0.4,-65.8,111.6)">
                        <rect x="1262" y="376" width="5" height="5" style="fill:rgb(4,66,3);"/>
                    </g>
                    <g transform="matrix(0.4,0,0,0.4,-65.8,95.6)">
                        <rect x="1262" y="376" width="5" height="5" style="fill:rgb(4,66,3);"/>
                    </g>
                    <g transform="matrix(0.4,0,0,0.4,-125.8,103.6)">
                        <rect x="1262" y="376" width="5" height="5" style="fill:rgb(4,66,3);"/>
                    </g>
                    <g transform="matrix(0.4,0,0,0.4,-125.8,87.6)">
                        <rect x="1262" y="376" width="5" height="5" style="fill:rgb(4,66,3);"/>
                    </g>
                    <g transform="matrix(0.4,0,0,0.4,-125.8,119.6)">
                        <rect x="1262" y="376" width="5" height="5" style="fill:rgb(4,66,3);"/>
                    </g>
                    <g transform="matrix(0.4,0,0,0.4,-121.8,111.6)">
                        <rect x="1262" y="376" width="5" height="5" style="fill:rgb(4,66,3);"/>
                    </g>
                    <g transform="matrix(0.4,0,0,0.4,-121.8,95.6)">
                        <rect x="1262" y="376" width="5" height="5" style="fill:rgb(4,66,3);"/>
                    </g>
                    <g transform="matrix(0.4,0,0,0.4,-157.8,103.6)">
                        <rect x="1262" y="376" width="5" height="5" style="fill:rgb(4,66,3);"/>
                    </g>
                    <g transform="matrix(0.4,0,0,0.4,-157.8,87.6)">
                        <rect x="1262" y="376" width="5" height="5" style="fill:rgb(4,66,3);"/>
                    </g>
                    <g transform="matrix(0.4,0,0,0.4,-157.8,119.6)">
                        <rect x="1262" y="376" width="5" height="5" style="fill:rgb(4,66,3);"/>
                    </g>
                    <g transform="matrix(0.4,0,0,0.4,-153.8,111.6)">
                        <rect x="1262" y="376" width="5" height="5" style="fill:rgb(4,66,3);"/>
                    </g>
                    <g transform="matrix(0.4,0,0,0.4,-153.8,95.6)">
                        <rect x="1262" y="376" width="5" height="5" style="fill:rgb(4,66,3);"/>
                    </g>
                    <g transform="matrix(0.4,0,0,0.4,-37.8,103.6)">
                        <rect x="1262" y="376" width="5" height="5" style="fill:rgb(4,66,3);"/>
                    </g>
                    <g transform="matrix(0.4,0,0,0.4,-37.8,87.6)">
                        <rect x="1262" y="376" width="5" height="5" style="fill:rgb(4,66,3);"/>
                    </g>
                    <g transform="matrix(0.4,0,0,0.4,-37.8,119.6)">
                        <rect x="1262" y="376" width="5" height="5" style="fill:rgb(4,66,3);"/>
                    </g>
                    <g transform="matrix(0.4,0,0,0.4,-33.8,111.6)">
                        <rect x="1262" y="376" width="5" height="5" style="fill:rgb(4,66,3);"/>
                    </g>
                    <g transform="matrix(0.4,0,0,0.4,-33.8,95.6)">
                        <rect x="1262" y="376" width="5" height="5" style="fill:rgb(4,66,3);"/>
                    </g>
                    <g transform="matrix(0.4,0,0,0.4,-93.8,103.6)">
                        <rect x="1262" y="376" width="5" height="5" style="fill:rgb(4,66,3);"/>
                    </g>
                    <g transform="matrix(0.4,0,0,0.4,-93.8,87.6)">
                        <rect x="1262" y="376" width="5" height="5" style="fill:rgb(4,66,3);"/>
                    </g>
                    <g transform="matrix(0.4,0,0,0.4,-93.8,119.6)">
                        <rect x="1262" y="376" width="5" height="5" style="fill:rgb(4,66,3);"/>
                    </g>
                    <g transform="matrix(0.4,0,0,0.4,-89.8,111.6)">
                        <rect x="1262" y="376" width="5" height="5" style="fill:rgb(4,66,3);"/>
                    </g>
                    <g transform="matrix(0.4,0,0,0.4,-89.8,95.6)">
                        <rect x="1262" y="376" width="5" height="5" style="fill:rgb(4,66,3);"/>
                    </g>
                    <g transform="matrix(0.4,0,0,0.4,-173.8,103.6)">
                        <rect x="1262" y="376" width="5" height="5" style="fill:rgb(4,66,3);"/>
                    </g>
                    <g transform="matrix(0.4,0,0,0.4,-173.8,87.6)">
                        <rect x="1262" y="376" width="5" height="5" style="fill:rgb(4,66,3);"/>
                    </g>
                    <g transform="matrix(0.4,0,0,0.4,-173.8,119.6)">
                        <rect x="1262" y="376" width="5" height="5" style="fill:rgb(4,66,3);"/>
                    </g>
                    <g transform="matrix(0.4,0,0,0.4,-169.8,111.6)">
                        <rect x="1262" y="376" width="5" height="5" style="fill:rgb(4,66,3);"/>
                    </g>
                    <g transform="matrix(0.4,0,0,0.4,-169.8,95.6)">
                        <rect x="1262" y="376" width="5" height="5" style="fill:rgb(4,66,3);"/>
                    </g>
                    <g transform="matrix(0.4,0,0,0.4,-53.8,103.6)">
                        <rect x="1262" y="376" width="5" height="5" style="fill:rgb(4,66,3);"/>
                    </g>
                    <g transform="matrix(0.4,0,0,0.4,-53.8,87.6)">
                        <rect x="1262" y="376" width="5" height="5" style="fill:rgb(4,66,3);"/>
                    </g>
                    <g transform="matrix(0.4,0,0,0.4,-53.8,119.6)">
                        <rect x="1262" y="376" width="5" height="5" style="fill:rgb(4,66,3);"/>
                    </g>
                    <g transform="matrix(0.4,0,0,0.4,-49.8,111.6)">
                        <rect x="1262" y="376" width="5" height="5" style="fill:rgb(4,66,3);"/>
                    </g>
                    <g transform="matrix(0.4,0,0,0.4,-49.8,95.6)">
                        <rect x="1262" y="376" width="5" height="5" style="fill:rgb(4,66,3);"/>
                    </g>
                    <g transform="matrix(0.4,0,0,0.4,-109.8,103.6)">
                        <rect x="1262" y="376" width="5" height="5" style="fill:rgb(4,66,3);"/>
                    </g>
                    <g transform="matrix(0.4,0,0,0.4,-109.8,87.6)">
                        <rect x="1262" y="376" width="5" height="5" style="fill:rgb(4,66,3);"/>
                    </g>
                    <g transform="matrix(0.4,0,0,0.4,-109.8,119.6)">
                        <rect x="1262" y="376" width="5" height="5" style="fill:rgb(4,66,3);"/>
                    </g>
                    <g transform="matrix(0.4,0,0,0.4,-105.8,111.6)">
                        <rect x="1262" y="376" width="5" height="5" style="fill:rgb(4,66,3);"/>
                    </g>
                    <g transform="matrix(0.4,0,0,0.4,-105.8,95.6)">
                        <rect x="1262" y="376" width="5" height="5" style="fill:rgb(4,66,3);"/>
                    </g>
                    <g transform="matrix(0.4,0,0,0.4,-141.8,103.6)">
                        <rect x="1262" y="376" width="5" height="5" style="fill:rgb(4,66,3);"/>
                    </g>
                    <g transform="matrix(0.4,0,0,0.4,-141.8,87.6)">
                        <rect x="1262" y="376" width="5" height="5" style="fill:rgb(4,66,3);"/>
                    </g>
                    <g transform="matrix(0.4,0,0,0.4,-141.8,119.6)">
                        <rect x="1262" y="376" width="5" height="5" style="fill:rgb(4,66,3);"/>
                    </g>
                    <g transform="matrix(0.4,0,0,0.4,-137.8,111.6)">
                        <rect x="1262" y="376" width="5" height="5" style="fill:rgb(4,66,3);"/>
                    </g>
                    <g transform="matrix(0.4,0,0,0.4,-137.8,95.6)">
                        <rect x="1262" y="376" width="5" height="5" style="fill:rgb(4,66,3);"/>
                    </g>
                </g>
            </g>
        </g>
    </g>
</svg>
